# xmcd
# Track frame offsets:
# 150
# 13639
# 25130
# 35999
# 47543
# 61354
# 76501
# 90527
# 107083
# 120608
# 131636
# 145018
# 157431
# 171235
# 184424
#
# Disc length: 2655 seconds
# Revision: 0
# Processed by: cddbd v1.4PL0 Copyright (c) Steve Scherf et al.
# Submitted via: VisiTrax 2.9.5.180 - For more info visit www.synapsa.com
#
DISCID=ca0a5d0f
DTITLE=Mel McDaniel - Country Legends
DYEAR=1999
DGENRE=
TTITLE0=Baby's got her blue jeans on
TTITLE1=Stand up
TTITLE2=Real good feel goood song
TTITLE3=Henrietta
TTITLE4=Noe you're talking
TTITLE5=Reminders
TTITLE6=Love is goin' round
TTITLE7=She's lover of lost causes
TTITLE8=Make it with the blues
TTITLE9=Hey y'all
TTITLE10=Ride this train
TTITLE11=Doctors orders
TTITLE12=Under my skin
TTITLE13=Shoe string
TTITLE14=If you still want a fool around
EXTD=
EXTT0=
EXTT1=
EXTT2=
EXTT3=
EXTT4=
EXTT5=
EXTT6=
EXTT7=
EXTT8=
EXTT9=
EXTT10=
EXTT11=
EXTT12=
EXTT13=
EXTT14=
PLAYORDER=
